<svg width="30" height="30" viewBox="0 0 30 30" fill="none" xmlns="http://www.w3.org/2000/svg">
<path fill-rule="evenodd" clip-rule="evenodd" d="M12.5207 4.0194C14.887 3.48476 17.3628 3.72937 19.5788 4.71674C20.2093 4.99771 20.9483 4.71429 21.2293 4.0837C21.5103 3.45311 21.2268 2.71414 20.5963 2.43317C17.8879 1.22638 14.8619 0.927419 11.9698 1.58087C9.07758 2.23432 6.47411 3.80517 4.54763 6.05914C2.62116 8.31312 1.4749 11.1294 1.27981 14.0881C1.08471 17.0468 1.85124 19.9892 3.46507 22.4766C5.0789 24.9641 7.45356 26.8632 10.2349 27.8907C13.0162 28.9183 16.0552 29.0192 18.8986 28.1785C21.742 27.3378 24.2375 25.6005 26.0128 23.2257C27.7882 20.8508 28.7483 17.965 28.75 15V13.85C28.75 13.1596 28.1904 12.6 27.5 12.6C26.8096 12.6 26.25 13.1596 26.25 13.85V14.9992C26.2486 17.4252 25.4631 19.7857 24.0105 21.7288C22.5579 23.6718 20.5162 25.0933 18.1898 25.7811C15.8634 26.469 13.3769 26.3864 11.1013 25.5456C8.82564 24.7049 6.88274 23.1511 5.56233 21.1159C4.24193 19.0808 3.61477 16.6733 3.77439 14.2526C3.93401 11.8319 4.87186 9.52761 6.44807 7.68345C8.02427 5.83929 10.1544 4.55404 12.5207 4.0194ZM28.3843 5.88339C28.8722 5.39499 28.8718 4.60354 28.3834 4.11563C27.895 3.62771 27.1036 3.62811 26.6157 4.11651L14.9996 15.7442L12.1339 12.8786C11.6457 12.3904 10.8543 12.3904 10.3661 12.8786C9.87796 13.3667 9.87796 14.1582 10.3661 14.6463L14.1161 18.3963C14.3506 18.6308 14.6687 18.7625 15.0003 18.7625C15.3319 18.7624 15.6499 18.6305 15.8843 18.3959L28.3843 5.88339Z" fill="#CC4391"/>
</svg>
