<svg width="127" height="110" viewBox="0 0 127 110" fill="none" xmlns="http://www.w3.org/2000/svg">
<path fill-rule="evenodd" clip-rule="evenodd" d="M64.5525 83.0733L65.8894 81.1603C64.6165 80.2714 63.3435 79.3754 62.0706 78.4864L62.7391 77.5335C64.012 78.4224 65.2849 79.3185 66.5579 80.2074C67.0059 79.5674 67.4468 78.9345 67.8948 78.2944C66.6219 77.4055 65.349 76.5095 64.076 75.6205L64.7445 74.6676C66.0174 75.5565 68.2504 77.121 69.5234 78.01L70.1918 77.057L71.1448 77.7255L70.4763 78.6785L69.5234 78.01C67.966 80.2359 66.4014 82.4688 64.844 84.6947L64.3676 84.3605L64.0547 84.14L63.8911 84.0263C62.6182 83.1373 61.3452 82.2413 60.0723 81.3524L60.7407 80.3994C62.0137 81.2883 63.2866 82.1844 64.5596 83.0733H64.5525Z" fill="#E41D37"/>
<path fill-rule="evenodd" clip-rule="evenodd" d="M52.3709 92.3395L52.8972 91.5857L53.0394 91.3866L55.0448 88.5207L55.1871 88.3216L55.7133 87.5677L56.3533 88.0158L56.6663 88.2362L59.5322 90.2416L59.8451 90.4621L60.4851 90.9101L60.0797 91.4862L59.8166 91.8702L57.8112 94.7361L57.541 95.1201L57.1356 95.6961L56.4316 95.2054L56.1756 95.0276L53.3097 93.0222L53.0536 92.8444L52.3496 92.3537L52.3709 92.3395ZM58.8637 91.1946L55.9978 89.1892L53.9924 92.0551L56.8583 94.0605L58.8637 91.1946Z" fill="#E41D37"/>
<path fill-rule="evenodd" clip-rule="evenodd" d="M61.1744 87.895L61.5371 87.3758L62.042 86.6505L62.2412 86.366L62.7105 85.6975L61.7576 85.0291L61.3096 85.6691L61.0891 85.982L60.4206 86.9349L60.2002 87.2549L59.7522 87.895L60.7051 88.5635L61.1744 87.895ZM59.0837 88.8479L58.849 88.6843L58.3583 88.343L58.1236 88.1794L57.1707 87.511L56.2178 86.8425L56.8862 85.8896L57.3912 85.1642L57.5547 84.9295L58.2232 83.9766L58.3868 83.7419L58.8917 83.0165L59.5601 82.0636L60.5131 82.7321L59.8446 83.685L59.3397 84.4104L59.1761 84.645L58.5077 85.598L58.3441 85.8327L57.8392 86.558L58.7921 87.2265L59.2401 86.5865L59.4606 86.2665L60.1291 85.3135L60.3495 85.0006L60.7975 84.3606L61.466 83.4077L62.1914 83.9126L62.4261 84.0761L63.379 84.7446L64.3319 85.4131L63.6634 86.366L63.1941 87.0345L62.995 87.3189L62.4901 88.0443L62.1274 88.5635L61.658 89.2319L60.9895 90.1849L60.0366 89.5164L59.0837 88.8479Z" fill="#E41D37"/>
<path fill-rule="evenodd" clip-rule="evenodd" d="M69.9153 75.4144L70.5838 74.4614L71.2523 73.5085L71.9208 72.5485L72.191 72.1644L72.5892 71.5955L73.5422 72.264L73.1439 72.8329L72.8737 73.2169L72.2052 74.177L71.5367 75.1299L70.8683 76.0828L70.598 76.474L70.1998 77.0429L69.4389 76.5095L69.2469 76.3673L68.2868 75.6988L67.3339 75.0304L66.3809 74.3619L66.1818 74.2268L65.4209 73.6934L65.8191 73.1245L66.0894 72.7405H66.0965L66.765 71.7875L67.4334 70.8275L68.1019 69.8746L68.3721 69.4905L68.7704 68.9216L69.7233 69.5901L69.3251 70.159L69.0548 70.543L68.3864 71.496L67.7179 72.456L67.0494 73.4089L68.0023 74.0774L68.6708 73.1245L69.3393 72.1644L70.0078 71.2115L70.278 70.8275L70.6762 70.2586L71.6363 70.9271L71.2381 71.496L70.9678 71.88L70.2993 72.8329L69.6238 73.793L68.9553 74.7459L69.9153 75.4144Z" fill="#E41D37"/>
<path fill-rule="evenodd" clip-rule="evenodd" d="M69.2679 68.2035L69.6945 67.599L69.9363 67.2506L70.6048 66.2976L71.2733 65.3447L71.9418 64.3918L72.1835 64.0433L72.6102 63.4388L73.2645 63.9011L73.5632 64.1073L74.5161 64.7758L74.8148 64.982L75.469 65.4443L75.0423 66.0487L74.8006 66.3972L74.1321 67.3501L73.4636 68.3031L72.7951 69.256L73.7481 69.9245L73.9898 70.088L74.7081 70.5929L74.0396 71.5459L73.3214 71.041L73.0796 70.8703L72.1267 70.2018L71.1737 69.5333L70.2208 68.8649L69.979 68.6942L69.2607 68.1893L69.2679 68.2035ZM73.8547 65.7216L72.9018 65.0531L72.2333 66.0061L71.5648 66.959L70.8964 67.9119L71.8493 68.5804L72.5178 67.6275L73.1863 66.6745L73.8547 65.7216Z" fill="#E41D37"/>
<path fill-rule="evenodd" clip-rule="evenodd" d="M73.1152 62.7135L73.6699 61.917L73.7837 61.7534L74.4522 60.8005L75.1207 59.8475L75.7891 58.8946L75.9029 58.7311L76.4576 57.9346L77.2043 58.4537L77.4105 58.603L78.3635 59.2715L79.3164 59.94L80.2693 60.6085L80.4756 60.7578L81.2223 61.2769L80.6676 62.0734L80.5538 62.237L79.8853 63.1899L79.2168 64.1429L78.5484 65.0958L78.4346 65.2593L77.8799 66.0558L77.1332 65.5367L76.927 65.3874L75.974 64.7189L75.0211 64.0504L74.0682 63.3819L73.8619 63.2326L73.1152 62.7135ZM79.608 61.5685L78.655 60.9L77.7021 60.2316L76.7492 59.5631L76.0807 60.516L75.4122 61.469L74.7438 62.4219L75.6967 63.0904L76.6496 63.7588L77.6026 64.4273L78.271 63.4744L78.9395 62.5214L79.608 61.5685Z" fill="#E41D37"/>
<path fill-rule="evenodd" clip-rule="evenodd" d="M76.9625 57.2163C78.079 55.6233 79.1883 54.0303 80.3048 52.4374L81.2578 53.1059L80.7884 53.7743L80.5893 54.0588L79.9208 55.0117L79.2523 55.9647L78.5839 56.9176L79.5368 57.5861L80.4897 58.2545L81.4427 58.923L82.1111 57.9701L82.7796 57.0171L83.4481 56.0642L83.6472 55.7798L84.1166 55.1113L85.0695 55.7798C83.953 57.3727 82.8436 58.9657 81.7271 60.5586L81.0373 60.0751L80.7671 59.8902L79.8142 59.2217L78.8612 58.5532L77.9083 57.8847L77.6381 57.6998L76.9482 57.2163H76.9625Z" fill="#E41D37"/>
<path fill-rule="evenodd" clip-rule="evenodd" d="M84.6494 46.236L85.3179 45.2831L86.093 45.8236L86.2708 45.9516L87.2238 46.6201L88.1767 47.2885L89.1296 47.957L89.3074 48.085L90.0826 48.6255L89.4141 49.5784L88.6389 49.0379L88.4611 48.9099L87.5082 48.2415L86.5553 47.573L85.6023 46.9045L85.4246 46.7765L84.6494 46.236ZM91.9955 44.2591L92.7707 44.7995L92.1022 45.7525L91.3271 45.212L91.1493 45.084L90.1963 44.4155L89.2434 43.747L88.2905 43.0786L88.1127 42.9506L87.3375 42.4101L88.006 41.4572L88.7812 41.9976L88.9589 42.1256L89.9119 42.7941L90.8648 43.4626L91.8177 44.1311L91.9955 44.2591ZM87.6149 44.0386L88.2834 43.0857L89.2363 43.7541L88.5678 44.7071L87.6149 44.0386ZM87.8993 45.66L88.5678 44.7071L89.5207 45.3756L88.8523 46.3285L87.8993 45.66ZM88.1838 47.2814L88.8523 46.3285L89.8052 46.997L89.1367 47.9499L88.1838 47.2814Z" fill="#E41D37"/>
<path fill-rule="evenodd" clip-rule="evenodd" d="M92.9841 42.46L93.3681 42.7303L93.937 43.1285L93.2686 44.0814L92.6997 43.6832L92.3156 43.413L91.3627 42.7445L90.4098 42.076L89.4568 41.4075L89.0728 41.1373L88.5039 40.7391L89.1724 39.7861L89.7413 40.1844L90.1253 40.4546L91.0782 41.1231L92.0312 41.7916L92.6997 40.8386L93.6526 41.5071L92.9841 42.46ZM96.0491 38.9114L96.6181 39.3097L95.9496 40.2626L95.3807 39.8644L94.9966 39.5941L94.0437 38.9256L93.0908 38.2572L92.1378 37.5887L91.7538 37.3185L91.1849 36.9202L91.8534 35.9673L92.4223 36.3655L92.8063 36.6358L93.7593 37.3042L94.7122 37.9727L95.6651 38.6412L96.0491 38.9114ZM91.4552 38.5416L92.1236 37.5887L93.0766 38.2572L92.4081 39.2101L91.4552 38.5416ZM91.7396 40.163L92.4081 39.2101L93.361 39.8786L92.6925 40.8315L91.7396 40.163Z" fill="#E41D37"/>
<path d="M89.5496 37.2075L88.8809 38.1626L89.836 38.8314L90.5047 37.8763L89.5496 37.2075Z" fill="#E41D37"/>
<path fill-rule="evenodd" clip-rule="evenodd" d="M80.8096 51.7262L81.2505 51.0932L81.478 50.7732L82.1465 49.8132L82.815 48.8602L83.4835 47.9073L83.7039 47.5873L84.1519 46.9473L85.1049 47.6229L84.664 48.2558L84.4364 48.5758L83.7679 49.5287L83.0995 50.4816L82.431 51.4417L83.3839 52.1102L84.344 52.7786L85.2969 53.4471L85.9654 52.4942L86.6338 51.5341L87.3023 50.5812L87.5299 50.2612L87.9708 49.6283L88.9237 50.2968L88.4828 50.9297L88.2552 51.2497L87.5868 52.2026L86.9183 53.1627L86.2498 54.1156L86.0223 54.4356L85.5813 55.0685L84.9271 54.6134L84.6284 54.4001L83.6755 53.7316L82.7154 53.0631L81.7625 52.3946L81.4638 52.1884L80.8096 51.7262Z" fill="#E41D37"/>
<path fill-rule="evenodd" clip-rule="evenodd" d="M92.3447 35.2489L92.7572 34.6658L93.0132 34.296L93.6817 33.336L94.3502 32.383L95.0186 31.4301L95.2817 31.0603L95.6871 30.4772L96.64 31.1456L96.2347 31.7288L95.9716 32.0986L95.3031 33.0515L94.6346 34.0116L93.9661 34.9645L94.9262 35.633L95.8791 36.3014L96.832 36.9699L97.5005 36.017L98.169 35.0569L98.8375 34.104L99.1006 33.7342L99.5059 33.1511L100.466 33.8195L100.054 34.4027L99.7975 34.7725L99.129 35.7254L98.4606 36.6855L97.7921 37.6384L97.529 38.0082L97.1165 38.5913L96.3769 38.0722L96.1636 37.9228L95.2106 37.2544L94.2577 36.5859L93.2977 35.9174L93.0914 35.7752L92.3447 35.2489Z" fill="#E41D37"/>
<path fill-rule="evenodd" clip-rule="evenodd" d="M100.679 31.4798L100.871 31.6149L101.632 32.1483L100.964 33.1012L100.203 32.5679L100.011 32.4327L99.058 31.7643L98.1051 31.0958L97.1522 30.4273L96.9601 30.2922L96.1992 29.7588L96.8677 28.8059L97.6286 29.3393L97.8206 29.4744L98.7736 30.1429L99.442 29.1899L99.6696 28.8628L100.111 28.2299L101.063 28.8984L100.623 29.5313L100.395 29.8584L99.7265 30.8113L100.679 31.4798ZM98.866 25.94L99.5345 24.9871L100.487 25.6555L99.8189 26.6085L100.772 27.2769L100.103 28.2299L99.1505 27.5614L99.8189 26.6085L98.866 25.94ZM102.685 28.6139L103.353 27.661L104.306 28.3294L103.638 29.2824L102.685 28.6139L102.016 29.5668L101.063 28.8984L101.732 27.9454L102.685 28.6139Z" fill="#E41D37"/>
<path fill-rule="evenodd" clip-rule="evenodd" d="M100.031 24.2618L100.7 23.3088L101.176 23.6431L101.653 23.9773L102.606 24.6458L103.559 25.3143L104.511 25.9827L104.988 26.317L105.464 26.6512L104.796 27.6041L104.319 27.2699L103.843 26.9357L102.89 26.2672L101.937 25.5987L100.984 24.9302L100.508 24.596L100.031 24.2618ZM107.669 22.4981L108.145 22.8324L107.477 23.7853L107 23.4511L106.524 23.1168L105.571 22.4483L104.618 21.7799L103.665 21.1114L103.189 20.7772L102.712 20.4429L103.381 19.49L103.857 19.8242L104.334 20.1585L105.287 20.8269L106.24 21.4954L107.192 22.1639L107.669 22.4981ZM102.99 22.0714L103.658 21.1185L104.611 21.787L103.943 22.7399L102.99 22.0714ZM103.274 23.6928L103.943 22.7399L104.895 23.4084L104.227 24.3613L103.274 23.6928ZM103.559 25.3143L104.227 24.3613L105.18 25.0298L104.511 25.9827L103.559 25.3143Z" fill="#E41D37"/>
<path fill-rule="evenodd" clip-rule="evenodd" d="M108.374 20.4927L108.85 20.827L109.327 21.1612L108.658 22.1141L108.182 21.7799L107.705 21.4457L106.752 20.7772L105.799 20.1087L104.846 19.4402L104.37 19.106L103.894 18.7718L104.562 17.8188L105.038 18.1531L105.515 18.4873L106.468 19.1558L107.421 19.8243L108.089 18.8713L109.042 19.5398L108.374 20.4927ZM111.524 17.0081L112.001 17.3424L111.332 18.2953L110.856 17.9611L110.379 17.6268L109.426 16.9584L108.473 16.2899L107.52 15.6214L107.044 15.2872L106.567 14.9529L107.236 14L107.712 14.3342L108.189 14.6685L109.142 15.3369L110.095 16.0054L111.048 16.6739L111.524 17.0081ZM106.845 16.5815L107.513 15.6285L108.466 16.297L107.798 17.2499L106.845 16.5815ZM107.129 18.2029L107.798 17.2499L108.751 17.9184L108.082 18.8713L107.129 18.2029Z" fill="#E41D37"/>
<path d="M104.931 15.2385L104.263 16.1936L105.218 16.8624L105.887 15.9073L104.931 15.2385Z" fill="#E41D37"/>
<path fill-rule="evenodd" clip-rule="evenodd" d="M73.385 82.1204L74.2028 82.6964L75.2908 83.4573L74.6224 84.4103L73.5343 83.6493L72.7165 83.0733L72.4463 82.8884L71.7565 82.4048L70.8035 81.7364L69.8506 81.0679L70.3555 80.3425L70.5191 80.1078L71.1875 79.1549L71.856 78.202L72.3609 77.4837L72.5316 77.2419L73.0365 76.5237L73.9894 77.1922L74.9424 77.8606L75.8953 78.5291L75.3904 79.2474L75.2197 79.4892L74.7148 80.2074L74.0463 81.1603L73.3779 82.1133L73.385 82.1204ZM71.472 80.7834L72.4249 81.4519L73.0934 80.499L73.7619 79.546L74.2668 78.8278L73.3139 78.1593L72.8089 78.8776L72.1405 79.8305L71.472 80.7834Z" fill="#0C54A0"/>
<path fill-rule="evenodd" clip-rule="evenodd" d="M65.2426 91.7138L65.4062 91.4791L66.0747 90.5191L66.7431 89.5661L65.7902 88.8977L64.8301 88.2292L65.5057 87.2762L66.4587 87.9447L67.4116 88.6132L68.0659 89.0683L68.3645 89.2817L69.1681 89.8435L70.2775 90.6186L69.609 91.5716L68.4997 90.7964L67.6961 90.2346L67.0276 91.1946L66.3591 92.1476L66.1955 92.3823L65.6906 93.1005L66.5227 93.6836L67.6036 94.4375L66.9351 95.3975L65.8471 94.6366L65.0222 94.0534L64.7661 93.8757L64.0692 93.385L63.1163 92.7165L62.1562 92.048L62.8247 91.0951L63.7848 91.7636L64.7377 92.432L65.2426 91.7138Z" fill="#0C54A0"/>
<path fill-rule="evenodd" clip-rule="evenodd" d="M73.0582 84.3818L74.1249 85.1285L73.4564 86.0814L72.3897 85.3347L71.5434 84.7445L70.875 85.6974L70.2065 86.6504L70.0429 86.885L69.538 87.6104L70.3843 88.2006L71.451 88.9473L70.7825 89.9003L69.7158 89.1536L68.8695 88.5633L68.6491 88.4069L67.9166 87.8949L66.9637 87.2264L66.0107 86.5579L66.6792 85.605L67.1841 84.8796L67.3477 84.6449L68.0162 83.692L68.6846 82.7391L69.3531 81.7861L70.306 82.4546L71.259 83.1231L71.9915 83.6351L72.2119 83.7916L73.0582 84.3818ZM69.922 85.0289L70.5905 84.076L69.6376 83.4075L68.9691 84.3605L68.3006 85.3134L68.1371 85.5481L67.6321 86.2734L68.5851 86.9419L69.09 86.2166L69.2536 85.9819L69.922 85.0289Z" fill="#0C54A0"/>
<path fill-rule="evenodd" clip-rule="evenodd" d="M75.5825 72.8826L76.2084 71.9937L76.3435 71.8017L76.8768 71.0408L77.8298 71.7092L78.7827 72.3777L79.4227 72.8257L79.7427 73.0462L80.5392 73.6009L81.6557 74.3831L81.1224 75.1441L80.9872 75.3361L80.3614 76.225L79.6005 77.3059L78.9747 78.1949L78.8396 78.3869L78.3062 79.1478L77.1897 78.3656L76.3933 77.8109L76.0732 77.5904L75.4332 77.1424L74.4803 76.4739L73.5273 75.8054L74.0607 75.0445L74.1958 74.8525L74.8216 73.9636L75.5825 72.8826ZM79.0743 73.9991L78.7542 73.7787L78.1142 73.3307L77.1613 72.6622L76.5355 73.5511L75.7746 74.632L75.1488 75.521L76.1017 76.1895L76.7417 76.6375L77.0617 76.8579L77.8582 77.4126L78.0147 77.5264L78.6405 76.6375L79.4014 75.5565L80.0272 74.6676L79.8707 74.5538L79.0743 73.9991Z" fill="#0C54A0"/>
<path fill-rule="evenodd" clip-rule="evenodd" d="M81.5557 64.3489L82.2241 63.396L83.1771 64.0645L84.13 64.7329C84.7985 63.78 85.467 62.82 86.1354 61.867L85.1825 61.1986L84.2296 60.5301L84.898 59.5771C86.491 60.6936 88.084 61.8101 89.6769 62.9195L89.0084 63.8725L87.9275 63.1115L87.1026 62.5355C86.4341 63.4884 85.7656 64.4485 85.0972 65.4014L85.9221 65.9774L87.003 66.7384L86.3345 67.6913C84.7416 66.5748 83.1486 65.4583 81.5557 64.3489Z" fill="#0C54A0"/>
<path fill-rule="evenodd" clip-rule="evenodd" d="M89.3152 57.33L89.9836 56.3771L90.9366 57.0456L90.2681 57.9985L89.5996 58.9514L88.9311 59.9043L89.8841 60.5728L90.5526 59.6199L91.221 58.667L91.8895 57.714L92.8424 58.3825L92.174 59.3354L91.5055 60.2884L90.837 61.2413L90.1685 62.1942C88.5756 61.0777 86.9826 59.9684 85.3896 58.8519L86.0581 57.8989L87.0111 58.5674L87.964 59.2359L88.6325 58.2829L89.3009 57.33H89.3152Z" fill="#0C54A0"/>
<path fill-rule="evenodd" clip-rule="evenodd" d="M90.9364 57.0455L91.6049 56.0925L90.8013 55.5236L89.7701 54.8054L88.7461 54.0871L89.4146 53.1271L90.4386 53.8524L91.4698 54.5707L92.2805 55.1325L92.5009 55.289L93.2334 55.801L94.1863 56.4694L93.5179 57.4295L92.5649 56.761L91.8965 57.714L90.9364 57.0455Z" fill="#0C54A0"/>
<path fill-rule="evenodd" clip-rule="evenodd" d="M96.1204 49.6425L96.5257 49.927L97.0733 50.311L98.0263 50.9795L97.3578 51.9324L96.4049 51.2639L95.8573 50.8799L95.4519 50.5955L94.7692 50.1119L94.499 49.9199L93.8305 50.8728L94.7834 51.5413L94.115 52.4942L93.162 51.8258L93.8305 50.8728L92.8776 50.2043L93.5461 49.2514L92.5931 48.5829L93.2616 47.63L94.3496 48.3909L95.4377 49.1519L96.1204 49.6354V49.6425ZM94.3994 54.1299L95.3524 54.7983L94.6839 55.7513L93.731 55.0828L93.1051 54.649L92.778 54.4143L92.0455 53.9023L90.9788 53.1556L89.9121 52.4089L90.5806 51.456L91.6473 52.2027L92.714 52.9494L93.4465 53.4614L94.115 52.5085L95.0679 53.1769L94.3994 54.1299Z" fill="#0C54A0"/>
<path fill-rule="evenodd" clip-rule="evenodd" d="M90.2959 49.8345L90.9644 48.8816L91.9173 49.5501L91.2488 50.503L90.2959 49.8345Z" fill="#0C54A0"/>
<path fill-rule="evenodd" clip-rule="evenodd" d="M81.6485 74.376L82.3099 73.4302L81.3569 72.7617C80.0413 71.8444 80.4182 72.1004 78.491 70.7563L77.5381 70.0878C78.6546 68.4949 79.7711 66.9019 80.8805 65.309L81.9401 66.0557C82.8574 66.7028 83.7819 67.3428 84.6993 67.99L85.6522 68.6584L86.3136 67.7126L87.2665 68.3811L86.5981 69.334L85.6451 68.6656C84.6424 70.095 83.3126 71.9937 82.3099 73.4302L83.2628 74.0987L82.5943 75.0516L81.6414 74.3832L81.6485 74.376ZM82.0254 71.8017C82.6939 70.8488 83.3624 69.8887 84.0308 68.9358C83.1135 68.2887 82.189 67.6486 81.2716 67.0015L81.1649 66.9304C80.4964 67.8833 79.828 68.8433 79.1595 69.7963C80.5107 70.7421 80.9587 71.055 82.0254 71.8017Z" fill="#0C54A0"/>
<path fill-rule="evenodd" clip-rule="evenodd" d="M76.514 95.6819L75.561 95.0134L71.7422 92.3395L73.7476 89.4736L72.7947 88.8052L73.4632 87.8522L74.4161 88.5207L75.0846 87.5678L76.4215 85.6548C78.5123 87.1197 79.323 87.6887 81.2004 88.9972L79.195 91.8631L80.1479 92.5315L79.4794 93.4845L78.5265 92.816C77.6731 94.0392 77.7158 93.9681 76.5211 95.6819H76.514ZM77.5665 92.1475L74.7005 90.1421L73.3636 92.0551L76.2295 94.0605C77.0687 92.8658 76.7273 93.3494 77.5665 92.1475ZM76.706 87.2762L75.369 89.1892L77.282 90.5261L78.2349 91.1946L79.5719 89.2816C78.5194 88.542 77.9789 88.1651 76.706 87.2762Z" fill="#727271"/>
<path fill-rule="evenodd" clip-rule="evenodd" d="M90.6378 65.3516L91.3062 64.3987L92.2592 65.0672L90.9222 66.9801L94.7411 69.654L94.0726 70.607C92.7996 69.718 91.5267 68.822 90.2537 67.9331C89.8057 68.5731 89.3648 69.206 88.9168 69.846L87.9639 69.1776C88.8528 67.9046 89.7488 66.6317 90.6378 65.3587V65.3516Z" fill="#727271"/>
<path fill-rule="evenodd" clip-rule="evenodd" d="M91.7816 71.8514L92.7345 72.5199L92.0661 73.4799L90.1531 72.1358L89.4846 73.0959L88.1477 75.0018L89.1006 75.6702V75.6773V75.6702L90.0606 76.3458L89.3922 77.2987L88.4321 76.6303L87.4792 75.9618L84.6133 73.9564L85.2818 72.9963L87.1947 74.3333L88.5317 72.4274L89.2002 71.4674L87.2872 70.1304L87.9557 69.1775L88.9157 69.846L90.8216 71.1829L91.7816 71.8514Z" fill="#727271"/>
<path fill-rule="evenodd" clip-rule="evenodd" d="M80.7666 79.4465C81.8831 77.8535 82.9925 76.2606 84.109 74.6676C85.7019 75.7841 87.2949 76.8935 88.8879 78.01C87.7714 79.6029 86.662 81.1959 85.5455 82.7889L80.7666 79.4465ZM84.3934 76.2961L82.388 79.162L85.2539 81.1675C85.9224 80.2145 86.5909 79.2545 87.2593 78.3015L84.3934 76.2961Z" fill="#727271"/>
<path fill-rule="evenodd" clip-rule="evenodd" d="M80.5529 81.7862L79.8844 82.7392L78.5475 84.6521L79.5004 85.3206L80.1689 84.3677L81.5058 82.4547L80.5529 81.7862ZM80.2684 80.1648L83.1343 82.1703L82.4659 83.1232L80.4604 85.9891L81.4134 86.6576L82.3663 87.326L81.6978 88.279L79.7849 86.942L76.9189 84.9366C77.9217 83.5072 78.8888 82.1205 80.2613 80.1577L80.2684 80.1648Z" fill="#727271"/>
<path fill-rule="evenodd" clip-rule="evenodd" d="M33.1205 49.927L55.9056 82.476L51.3827 88.9475L24.0605 49.927H33.1205Z" fill="url(#paint0_linear_1391_7899)"/>
<path fill-rule="evenodd" clip-rule="evenodd" d="M24.06 49.927L51.3821 88.9474L46.8592 95.4189L15 49.927H24.06Z" fill="url(#paint1_linear_1391_7899)"/>
<path fill-rule="evenodd" clip-rule="evenodd" d="M42.1801 49.927L60.4351 76.0046L55.9052 82.476L33.1201 49.927H42.1801Z" fill="url(#paint2_linear_1391_7899)"/>
<path fill-rule="evenodd" clip-rule="evenodd" d="M60.9752 75.2224L60.4347 76.0046L42.1797 49.927H43.2606L60.9752 75.2224Z" fill="#B2B3B3"/>
<defs>
<linearGradient id="paint0_linear_1391_7899" x1="33.6579" y1="56.5332" x2="46.4569" y2="75.0542" gradientUnits="userSpaceOnUse">
<stop stop-color="#00A0E3"/>
<stop offset="1" stop-color="#0C54A0"/>
</linearGradient>
<linearGradient id="paint1_linear_1391_7899" x1="26.9048" y1="60.2771" x2="44.3731" y2="85.3882" gradientUnits="userSpaceOnUse">
<stop stop-color="#E41D37"/>
<stop offset="1" stop-color="#AF212E"/>
</linearGradient>
<linearGradient id="paint2_linear_1391_7899" x1="43.6465" y1="59.9174" x2="51.9179" y2="71.4585" gradientUnits="userSpaceOnUse">
<stop stop-color="#FEFEFE"/>
<stop offset="1" stop-color="#D9DADA"/>
</linearGradient>
</defs>
</svg>
