<svg width="127" height="63" viewBox="0 0 127 63" fill="none" xmlns="http://www.w3.org/2000/svg">
<path d="M39.7212 40.465H47.6169V43.0489H43.8608V61.2041H39.7212V40.465Z" fill="#0079C2"/>
<path d="M52.2977 53.4184L53.0071 43.0489H53.2448L53.9542 53.4184H52.2977ZM47.7134 61.2041H51.7664L52.15 55.6963H54.1019L54.4872 61.2041H58.5385L56.3796 40.465H49.8723L47.7134 61.2041Z" fill="#0079C2"/>
<path d="M64.467 53.9454V57.8553C64.467 58.3822 64.8744 58.5352 65.112 58.5352C65.5023 58.5352 65.7739 58.2122 65.7739 57.8553V53.0275C65.7739 52.3815 65.6551 51.6675 64.1106 51.6675H62.4303V49.3896H64.1785C65.3496 49.3896 65.7739 49.1176 65.7739 47.8427V43.7288C65.7739 43.3719 65.5023 43.0489 65.112 43.0489C64.8744 43.0489 64.467 43.1849 64.467 43.7288V47.1117H60.3257V44.1708C60.3257 42.7259 60.4954 40.465 63.3977 40.465H66.8262C69.7285 40.465 69.9152 42.7259 69.9152 44.1708V47.4857C69.9152 49.7466 68.3368 50.3586 67.0978 50.3076V50.5116C69.8813 50.4436 69.9152 52.5855 69.9152 53.3164V57.4983C69.9152 58.9602 69.7285 61.2041 66.8262 61.2041H63.3977C60.4954 61.2041 60.3257 58.9602 60.3257 57.4983V53.9454H64.467Z" fill="#0079C2"/>
<path d="M72.6309 40.465H82.2204V61.2041H78.0791V43.0489H76.7722V61.2041H72.6309V40.465Z" fill="#0079C2"/>
<path d="M89.0774 51.8715V43.0489H89.6205C90.0618 43.0489 90.3843 43.4228 90.3843 44.0858V50.8345C90.3843 51.4975 90.0618 51.8715 89.6205 51.8715H89.0774ZM84.936 61.2041H89.0774V54.1494H91.4535C94.3389 54.1494 94.5256 51.9055 94.5256 50.4436V44.1708C94.5256 42.7259 94.3389 40.465 91.4535 40.465H84.936V61.2041Z" fill="#0079C2"/>
<path d="M102.689 57.8553C102.689 58.2122 102.418 58.5352 102.028 58.5352C101.79 58.5352 101.383 58.3822 101.383 57.8553V43.7288C101.383 43.1849 101.79 43.0489 102.028 43.0489C102.418 43.0489 102.689 43.3719 102.689 43.7288V57.8553ZM97.2412 57.4983C97.2412 58.9602 97.4279 61.2041 100.313 61.2041H103.759C106.644 61.2041 106.831 58.9602 106.831 57.4983V44.1708C106.831 42.7259 106.644 40.465 103.759 40.465H100.313C97.4279 40.465 97.2412 42.7259 97.2412 44.1708V57.4983Z" fill="#0079C2"/>
<path d="M120.308 40.465H125.705V61.2041H121.564V48.1996H121.411L119.272 61.2041H115.963L113.841 48.1996H113.688V61.2041H109.547V40.465H114.927L117.626 55.0504L120.308 40.465Z" fill="#0079C2"/>
<path d="M34.3545 12.1101C33.0866 6.55136 29.9094 2.02955 29.4715 1.29858C28.779 2.33554 26.2449 6.33037 24.9567 10.7502C23.5497 15.697 23.3426 20.0828 23.828 24.3836C24.3101 28.7014 26.1312 33.1383 26.1312 33.1383C27.0987 35.4502 28.5481 37.9491 29.4918 39.173C30.8751 37.3711 34.0541 31.9993 35.0453 24.9956C35.5969 21.0858 35.6206 17.6689 34.3545 12.1101ZM29.4715 37.7791C28.8486 36.6061 27.8811 34.3792 27.7895 30.9114C27.7657 27.5795 29.1014 24.7066 29.4918 24.1116C29.8398 24.7066 30.9905 27.2055 31.128 30.6224C31.2213 33.9542 30.1147 36.5891 29.4715 37.7791ZM33.9862 21.5447C33.9387 23.6697 33.6858 25.9136 33.3633 27.2565C33.4787 24.9446 33.202 21.6977 32.6725 19.1478C32.143 16.6149 30.6443 12.3651 29.4477 10.4102C28.3428 12.2801 26.9816 15.952 26.2687 19.1308C25.5525 22.3097 25.5321 26.1686 25.5321 27.3245C25.342 26.3555 24.8668 22.8707 25.0008 19.3858C25.1129 16.5129 25.785 13.5381 26.1533 12.1781C27.5586 7.63933 29.149 4.73244 29.4477 4.27345C29.7464 4.73244 31.7492 8.31929 32.7879 12.0761C33.8216 15.833 34.0303 19.4368 33.9862 21.5447Z" fill="#0079C2"/>
<path d="M31.6217 40.4649H21.9829V46.9416C21.9914 46.9416 21.9982 46.9246 22.0067 46.9246C24.2776 44.6467 27.9607 44.6467 30.2333 46.9246C32.5043 49.1855 32.5043 52.8744 30.2333 55.1523C30.2231 55.1693 30.213 55.1693 30.2028 55.1863C30.1909 55.1863 30.179 55.2033 30.1688 55.2203C27.903 57.4642 24.9429 58.5862 21.9829 58.5862C19.0093 58.5862 16.0357 57.4642 13.7681 55.1863C9.76937 51.1915 9.29584 44.9867 12.3441 40.4649C12.7549 39.8529 13.2284 39.2749 13.7681 38.731C16.0357 36.4531 19.0093 35.3311 21.9829 35.3311V19.7598C10.5569 19.7598 1.29492 29.0244 1.29492 40.4649C1.29492 51.9054 10.5569 61.187 21.9829 61.187C27.9403 61.187 33.3071 58.6541 37.0818 54.6253V40.4649H31.6217Z" fill="#0079C2"/>
</svg>
