<svg width="32" height="32" viewBox="0 0 32 32" fill="none" xmlns="http://www.w3.org/2000/svg">
<g opacity="0.5">
<rect width="32" height="32" rx="16" fill="#717171"/>
<g clip-path="url(#clip0_1741_6946)">
<path d="M16.0037 11.5947C13.5125 11.5947 11.503 13.5598 11.503 15.9961C11.503 18.4324 13.5125 20.3975 16.0037 20.3975C18.495 20.3975 20.5044 18.4324 20.5044 15.9961C20.5044 13.5598 18.495 11.5947 16.0037 11.5947ZM16.0037 18.8576C14.3938 18.8576 13.0777 17.5743 13.0777 15.9961C13.0777 14.4179 14.3899 13.1346 16.0037 13.1346C17.6175 13.1346 18.9297 14.4179 18.9297 15.9961C18.9297 17.5743 17.6136 18.8576 16.0037 18.8576ZM21.7383 11.4147C21.7383 11.9854 21.2682 12.4413 20.6885 12.4413C20.1049 12.4413 19.6387 11.9816 19.6387 11.4147C19.6387 10.8477 20.1088 10.3881 20.6885 10.3881C21.2682 10.3881 21.7383 10.8477 21.7383 11.4147ZM24.7191 12.4566C24.6526 11.0814 24.3314 9.86325 23.3012 8.85962C22.2749 7.85599 21.0293 7.54188 19.6231 7.47293C18.1738 7.39249 13.8297 7.39249 12.3804 7.47293C10.9781 7.53805 9.73251 7.85216 8.70232 8.85579C7.67214 9.85942 7.35486 11.0776 7.28435 12.4528C7.20209 13.8701 7.20209 18.1183 7.28435 19.5356C7.35094 20.9108 7.67214 22.129 8.70232 23.1326C9.73251 24.1362 10.9742 24.4503 12.3804 24.5193C13.8297 24.5997 18.1738 24.5997 19.6231 24.5193C21.0293 24.4542 22.2749 24.1401 23.3012 23.1326C24.3274 22.129 24.6486 20.9108 24.7191 19.5356C24.8014 18.1183 24.8014 13.8739 24.7191 12.4566ZM22.8468 21.0564C22.5413 21.8072 21.9498 22.3856 21.1781 22.6883C20.0226 23.1364 17.2807 23.033 16.0037 23.033C14.7267 23.033 11.9809 23.1326 10.8293 22.6883C10.0615 22.3895 9.47006 21.811 9.16062 21.0564C8.70232 19.9264 8.80808 17.2449 8.80808 15.9961C8.80808 14.7473 8.70624 12.062 9.16062 10.9358C9.46615 10.185 10.0576 9.6066 10.8293 9.30398C11.9848 8.85579 14.7267 8.95922 16.0037 8.95922C17.2807 8.95922 20.0265 8.85962 21.1781 9.30398C21.9459 9.60277 22.5373 10.1812 22.8468 10.9358C23.3051 12.0659 23.1993 14.7473 23.1993 15.9961C23.1993 17.2449 23.3051 19.9302 22.8468 21.0564Z" fill="white"/>
</g>
</g>
<defs>
<clipPath id="clip0_1741_6946">
<rect width="17.5484" height="19.6129" fill="white" transform="translate(7.22559 6.19336)"/>
</clipPath>
</defs>
</svg>
