<svg width="24" height="24" viewBox="0 0 24 24" fill="none" xmlns="http://www.w3.org/2000/svg">
<circle cx="12" cy="12" r="12" fill="#CC4391"/>
<path d="M15.9487 8.49432C15.0071 7.63125 13.8694 7.19971 12.4571 7.19971C11.0056 7.19971 9.75019 7.67048 8.73019 8.65125C7.71019 9.63201 7.2002 10.8482 7.2002 12.2997C7.2002 13.712 7.67097 14.8889 8.65174 15.9089C9.63251 16.9289 10.9271 17.3997 12.614 17.3997C13.5948 17.3997 14.5756 17.2036 15.5564 16.772C15.8702 16.6543 16.0271 16.262 15.9094 15.9482C15.7917 15.6343 15.3994 15.4774 15.0856 15.5951C14.2617 15.9482 13.4379 16.1443 12.6533 16.1443C11.3979 16.1443 10.4171 15.752 9.71096 14.9674C9.00481 14.1828 8.65174 13.2805 8.65174 12.2605C8.65174 11.1228 9.04404 10.1812 9.7502 9.43586C10.4956 8.69048 11.3979 8.29817 12.4963 8.29817C13.4771 8.29817 14.3402 8.61201 15.0464 9.23971C15.7525 9.8674 16.0664 10.652 16.0664 11.5936C16.0664 12.2212 15.9094 12.7705 15.5956 13.202C15.2817 13.6336 14.9679 13.8297 14.6148 13.8297C14.4187 13.8297 14.3402 13.7512 14.3402 13.5159C14.3402 13.3589 14.3402 13.1628 14.3794 12.9666L14.7717 9.78894H13.4379L13.3594 10.1028C13.0064 9.82817 12.6533 9.67125 12.261 9.67125C11.6333 9.67125 11.084 9.94586 10.6133 10.4559C10.1425 10.9659 9.94635 11.6328 9.94635 12.4174C9.94635 13.202 10.1425 13.8297 10.574 14.3397C10.9664 14.8105 11.4764 15.0459 12.0256 15.0459C12.5356 15.0459 12.9671 14.8497 13.3202 14.4182C13.5948 14.8105 13.9871 15.0459 14.5364 15.0459C15.321 15.0459 15.9879 14.6928 16.5763 14.0259C17.1648 13.3589 17.4394 12.5351 17.4394 11.5543C17.3217 10.3774 16.851 9.31817 15.9487 8.49432ZM12.8494 13.2805C12.614 13.5943 12.3394 13.7512 11.9864 13.7512C11.751 13.7512 11.594 13.6336 11.4371 13.3982C11.2802 13.1628 11.241 12.8882 11.241 12.5351C11.241 12.1036 11.3194 11.7505 11.5156 11.5151C11.7117 11.2405 11.9471 11.1228 12.2217 11.1228C12.4571 11.1228 12.6925 11.2012 12.8887 11.4366C13.0848 11.6328 13.1633 11.9074 13.1633 12.2212C13.2025 12.6136 13.0848 12.9666 12.8494 13.2805Z" fill="white"/>
</svg>
