<svg width="127" height="110" viewBox="0 0 127 110" fill="none" xmlns="http://www.w3.org/2000/svg">
<path d="M22.1421 40.7184C22.8114 40.5608 23.5014 40.883 23.809 41.4969L28.4138 50.689L33.0186 41.4969C33.3262 40.883 34.0162 40.5608 34.6855 40.7184C35.3547 40.8761 35.8276 41.4724 35.8276 42.1588V65.8377C35.8276 66.6549 35.1637 67.3176 34.3448 67.3176C33.5259 67.3176 32.8621 66.6549 32.8621 65.8377V48.4279L29.74 54.6601C29.4888 55.1615 28.9754 55.4782 28.4138 55.4782C27.8522 55.4782 27.3387 55.1615 27.0876 54.6601L23.9655 48.4279V65.8377C23.9655 66.6549 23.3017 67.3176 22.4828 67.3176C21.6639 67.3176 21 66.6549 21 65.8377V42.1588C21 41.4724 21.4728 40.8761 22.1421 40.7184Z" fill="black"/>
<path fill-rule="evenodd" clip-rule="evenodd" d="M40.6867 33.1253C41.8388 30.8254 43.7047 28.8395 46.2068 28.8395C48.7088 28.8395 50.5747 30.8254 51.7269 33.1253C52.9233 35.5137 53.6206 38.7096 53.6206 42.1589C53.6206 45.6082 52.9233 48.8041 51.7269 51.1925C50.5747 53.4923 48.7088 55.4783 46.2068 55.4783C43.7047 55.4783 41.8388 53.4923 40.6867 51.1925C39.4902 48.8041 38.793 45.6082 38.793 42.1589C38.793 38.7096 39.4902 35.5137 40.6867 33.1253ZM43.3391 34.449C42.3889 36.3456 41.7585 39.0695 41.7585 42.1589C41.7585 45.2483 42.3889 47.9721 43.3391 49.8688C44.3336 51.854 45.4331 52.5184 46.2068 52.5184C46.9804 52.5184 48.0799 51.854 49.0744 49.8688C50.0246 47.9721 50.655 45.2483 50.655 42.1589C50.655 39.0695 50.0246 36.3456 49.0744 34.449C48.0799 32.4638 46.9804 31.7994 46.2068 31.7994C45.4331 31.7994 44.3336 32.4638 43.3391 34.449Z" fill="black"/>
<path fill-rule="evenodd" clip-rule="evenodd" d="M99.5861 31.7993C97.0841 31.7993 95.2182 33.7852 94.0661 36.0851C92.8692 38.4734 92.1724 41.6694 92.1724 45.1187C92.1724 48.568 92.8692 51.7639 94.0661 54.1523C95.2182 56.4522 97.0841 58.4381 99.5861 58.4381C102.088 58.4381 103.954 56.4522 105.106 54.1523C106.302 51.7639 107 48.568 107 45.1187C107 41.6694 106.302 38.4734 105.106 36.0851C103.954 33.7852 102.088 31.7993 99.5861 31.7993ZM95.1377 45.1187C95.1377 42.0293 95.7683 39.3055 96.7181 37.4088C97.7126 35.4236 98.8125 34.7592 99.5861 34.7592C100.36 34.7592 101.459 35.4236 102.454 37.4088C103.404 39.3055 104.034 42.0293 104.034 45.1187C104.034 48.2081 103.404 50.932 102.454 52.8286C101.459 54.8138 100.36 55.4783 99.5861 55.4783C98.8125 55.4783 97.7126 54.8138 96.7181 52.8286C95.7683 50.932 95.1377 48.2081 95.1377 45.1187Z" fill="black"/>
<path d="M75.8621 43.6388C76.6807 43.6388 77.3447 44.3014 77.3447 45.1188V55.4783H86.2415V45.1188C86.2415 44.3014 86.905 43.6388 87.7241 43.6388C88.5428 43.6388 89.2068 44.3014 89.2068 45.1188V68.7975C89.2068 69.615 88.5428 70.2777 87.7241 70.2777C86.905 70.2777 86.2415 69.615 86.2415 68.7975V58.4382H77.3447V68.7975C77.3447 69.615 76.6807 70.2777 75.8621 70.2777C75.0429 70.2777 74.3794 69.615 74.3794 68.7975V45.1188C74.3794 44.3014 75.0429 43.6388 75.8621 43.6388Z" fill="black"/>
<path d="M71.4139 56.9582C71.4139 56.2719 70.9413 55.6755 70.2719 55.5179C69.6024 55.3602 68.9127 55.6825 68.605 56.2964L59.5519 74.368V56.9582C59.5519 56.1409 58.8881 55.4783 58.0692 55.4783C57.2503 55.4783 56.5864 56.1409 56.5864 56.9582V80.637C56.5864 81.3237 57.0592 81.9199 57.7285 82.0777C58.3978 82.235 59.0878 81.9127 59.3954 81.2988L68.4486 63.2274V80.637C68.4486 81.4545 69.1122 82.1172 69.9313 82.1172C70.7499 82.1172 71.4139 81.4545 71.4139 80.637V56.9582Z" fill="black"/>
<path d="M42.3727 80.6369L53.1863 69.8443C53.7653 69.2662 53.7653 68.3291 53.1863 67.751C52.6072 67.1733 51.6684 67.1733 51.0893 67.751L41.7585 77.0642V68.7975C41.7585 67.9803 41.0946 67.3176 40.2757 67.3176C39.4568 67.3176 38.793 67.9803 38.793 68.7975V92.4764C38.793 93.294 39.4568 93.9567 40.2757 93.9567C41.0946 93.9567 41.7585 93.294 41.7585 92.4764V84.2101L51.0893 93.5229C51.6684 94.101 52.6072 94.101 53.1863 93.5229C53.7653 92.9452 53.7653 92.0081 53.1863 91.43L42.3727 80.6369Z" fill="black"/>
<path d="M58.069 30.3194C58.069 24.598 62.716 19.9599 68.4485 19.9599C69.2672 19.9599 69.9311 19.2973 69.9311 18.4799C69.9311 17.6626 69.2672 17 68.4485 17C61.0782 17 55.1035 22.9633 55.1035 30.3194C55.1035 37.6755 61.0782 43.6388 68.4485 43.6388C69.2672 43.6388 69.9311 42.9762 69.9311 42.1588C69.9311 41.3415 69.2672 40.6789 68.4485 40.6789C62.716 40.6789 58.069 36.0408 58.069 30.3194Z" fill="black"/>
</svg>
