<svg width="32" height="32" viewBox="0 0 32 32" fill="none" xmlns="http://www.w3.org/2000/svg">
<circle cx="16" cy="16" r="16" fill="white"/>
<path d="M21.2652 11.3258C20.0098 10.175 18.4929 9.59961 16.6098 9.59961C14.6744 9.59961 13.0006 10.2273 11.6406 11.535C10.2806 12.8427 9.60059 14.4642 9.60059 16.3996C9.60059 18.2827 10.2283 19.8519 11.536 21.2119C12.8437 22.5719 14.5698 23.1996 16.8191 23.1996C18.1267 23.1996 19.4344 22.9381 20.7421 22.3627C21.1606 22.2058 21.3698 21.6827 21.2129 21.2642C21.056 20.8458 20.5329 20.6365 20.1144 20.7935C19.016 21.2642 17.9175 21.5258 16.8714 21.5258C15.1975 21.5258 13.8898 21.0027 12.9483 19.9565C12.0067 18.9104 11.536 17.7073 11.536 16.3473C11.536 14.8304 12.059 13.575 13.0006 12.5811C13.9944 11.5873 15.1975 11.0642 16.6621 11.0642C17.9698 11.0642 19.1206 11.4827 20.0621 12.3196C21.0037 13.1565 21.4221 14.2027 21.4221 15.4581C21.4221 16.295 21.2129 17.0273 20.7944 17.6027C20.376 18.1781 19.9575 18.4396 19.4867 18.4396C19.2252 18.4396 19.1206 18.335 19.1206 18.0211C19.1206 17.8119 19.1206 17.5504 19.1729 17.2888L19.696 13.0519H17.9175L17.8129 13.4704C17.3421 13.1042 16.8714 12.895 16.3483 12.895C15.5114 12.895 14.7791 13.2611 14.1514 13.9411C13.5237 14.6211 13.2621 15.5104 13.2621 16.5565C13.2621 17.6027 13.5237 18.4396 14.0991 19.1196C14.6221 19.7473 15.3021 20.0611 16.0344 20.0611C16.7144 20.0611 17.2898 19.7996 17.7606 19.2242C18.1267 19.7473 18.6498 20.0611 19.3821 20.0611C20.4283 20.0611 21.3175 19.5904 22.1021 18.7011C22.8867 17.8119 23.2529 16.7135 23.2529 15.4058C23.096 13.8365 22.4683 12.4242 21.2652 11.3258ZM17.1329 17.7073C16.819 18.1258 16.4529 18.335 15.9821 18.335C15.6683 18.335 15.4591 18.1781 15.2498 17.8642C15.0406 17.5504 14.9883 17.1842 14.9883 16.7135C14.9883 16.1381 15.0929 15.6673 15.3544 15.3535C15.616 14.9873 15.9298 14.8304 16.296 14.8304C16.6098 14.8304 16.9237 14.935 17.1852 15.2488C17.4467 15.5104 17.5514 15.8765 17.5514 16.295C17.6037 16.8181 17.4467 17.2888 17.1329 17.7073Z" fill="#CC4391"/>
</svg>
