<svg width="128" height="128" viewBox="0 0 128 128" fill="none" xmlns="http://www.w3.org/2000/svg">
<path fill-rule="evenodd" clip-rule="evenodd" d="M100.79 70.5164L101.513 56.2997L95.1798 53.1003L95.3419 49.9009H123.235L123.081 52.923L115.678 56.2997L114.947 70.6957L121.826 74.249L121.628 78.1596H92.8749L93.0555 74.6049L100.79 70.5164ZM70.5933 70.8982H66.3739L66.6309 65.6568L70.8563 65.6555C73.0935 65.5672 74.0909 67.566 73.5244 68.8549C73.5244 68.8549 73.3099 70.8099 70.5933 70.8982ZM71.1106 60.7223H66.8925L67.1495 55.7977H71.5867C73.2661 55.7532 74.4714 56.9916 74.1055 58.5648C74.1055 58.5648 73.9992 60.7236 71.1106 60.7223ZM83.1943 49.8531C83.1943 49.8531 88.5758 49.2753 89.6171 56.0991C89.6171 56.0991 90.046 60.8039 85.2655 63.5637C90.477 65.0698 89.5301 71.3783 89.5301 71.3783C87.9556 78.5467 80.6198 78.137 80.6198 78.137H45.1103L45.3275 74.5817L51.9461 70.5011L52.5769 56.0898L46.3727 53.075L46.5898 49.8763L83.1943 49.8531ZM24.6296 53.7437H25.4564C27.3582 53.7437 28.8185 55.3355 28.7195 57.2984L28.0668 70.1644C27.9671 72.1267 26.3442 73.7184 24.4424 73.7184H23.6156C21.7138 73.7184 20.2535 72.1274 20.3525 70.1644L21.0052 57.2984C21.1055 55.3355 22.7284 53.7437 24.6296 53.7437ZM17.6372 49.8756H32.9183C39.5748 49.8756 44.688 55.4457 44.3393 62.316L44.168 65.6927C43.8194 72.563 38.1404 78.133 31.4846 78.133H16.2028C9.54702 78.133 4.43382 72.5623 4.78244 65.6927L4.95311 62.316C5.30306 55.4457 10.9814 49.8756 17.6372 49.8756Z" fill="#D9782D"/>
<path fill-rule="evenodd" clip-rule="evenodd" d="M83.2538 50.4109L83.2532 50.411L83.2527 50.4111L83.2521 50.4111L83.252 50.4111L83.2242 50.4141L47.1138 50.4371L46.9577 52.7356L53.1532 55.7462L52.4932 70.8227L45.8694 74.9065L45.7063 77.5759H80.6351L80.6499 77.5767L80.65 77.5767L80.6503 77.5767L80.6507 77.5767L80.6516 77.5768C80.6537 77.5769 80.6575 77.5771 80.6629 77.5773C80.6738 77.5777 80.6913 77.5783 80.7151 77.5789C80.7628 77.58 80.8355 77.5808 80.93 77.5795C81.1192 77.5769 81.3951 77.5657 81.7326 77.5309C82.4094 77.4609 83.3236 77.2969 84.2799 76.9232C86.17 76.1845 88.234 74.629 88.977 71.2788C88.9782 71.2694 88.98 71.2562 88.982 71.2393C88.987 71.1983 88.994 71.1357 89.0013 71.0542C89.0159 70.8912 89.0316 70.6534 89.0351 70.3623C89.0421 69.7779 88.9995 68.99 88.8054 68.1641C88.4192 66.52 87.4553 64.7807 85.1093 64.1028L83.843 63.7368L84.9846 63.0778C87.2355 61.7783 88.2447 60.0354 88.6995 58.6243C88.9283 57.9147 89.0173 57.286 89.0493 56.8375C89.0652 56.6136 89.0668 56.4358 89.0647 56.3167C89.0637 56.2572 89.0617 56.2124 89.0601 56.1841C89.0596 56.1756 89.0591 56.1686 89.0588 56.1631C88.5611 52.9374 87.0671 51.5449 85.7719 50.923C85.1067 50.6035 84.468 50.4753 83.9948 50.4277C83.759 50.4039 83.5668 50.4004 83.4365 50.4026C83.3715 50.4037 83.3221 50.4061 83.2908 50.4082C83.2752 50.4092 83.2641 50.4101 83.2578 50.4106L83.2543 50.4109L83.2538 50.4109ZM89.6167 56.0991C90.1755 56.0482 90.1755 56.0485 90.1755 56.0488L90.1756 56.0495L90.1757 56.0513L90.1762 56.0563C90.1765 56.0601 90.1769 56.0651 90.1773 56.0712C90.1782 56.0835 90.1794 56.1002 90.1805 56.1211C90.1829 56.1631 90.1855 56.2221 90.1868 56.2966C90.1894 56.4456 90.1872 56.6569 90.1687 56.9172C90.1317 57.4371 90.0292 58.1571 89.7676 58.9686C89.3128 60.3799 88.3783 62.0591 86.4967 63.432C88.5903 64.4363 89.5149 66.2769 89.898 67.9074C90.1186 68.8469 90.165 69.7303 90.1573 70.3757C90.1534 70.6996 90.1359 70.9665 90.1191 71.1543C90.1106 71.2483 90.1024 71.3227 90.096 71.3748C90.0929 71.4008 90.0902 71.4213 90.0882 71.4359C90.0872 71.4432 90.0864 71.449 90.0858 71.4533L90.085 71.4586L90.0848 71.4604L90.0847 71.461C90.0846 71.4613 90.0846 71.4616 89.5297 71.3783L90.0846 71.4616L90.0818 71.4802L90.0777 71.4986C89.2423 75.3024 86.8558 77.1214 84.6884 77.9684C83.6139 78.3883 82.5957 78.5699 81.8479 78.6472C81.4731 78.6859 81.1635 78.6987 80.9454 78.7017C80.8363 78.7032 80.7498 78.7022 80.6892 78.7008C80.6589 78.7001 80.6351 78.6993 80.6181 78.6986C80.6136 78.6985 80.6096 78.6983 80.606 78.6981H44.5135L44.7847 74.2568L51.3981 70.1795L51.9998 56.4334L45.7868 53.4144L46.0651 49.3155L83.1684 49.2919C83.1816 49.2908 83.1983 49.2895 83.2184 49.2882C83.2665 49.2851 83.3338 49.2819 83.4179 49.2805C83.586 49.2777 83.8224 49.2824 84.1073 49.3111C84.6757 49.3683 85.4475 49.5222 86.2577 49.9113C87.9109 50.7052 89.6246 52.4311 90.1714 56.0145L90.1739 56.0312L90.1755 56.0482L89.6167 56.0991ZM5.5131 62.3443C5.51309 62.3444 5.51309 62.3444 5.51308 62.3445L5.34243 65.7211C5.00911 72.2891 9.8864 77.5719 16.2024 77.5719H31.4842C37.8251 77.5719 43.2729 72.2523 43.6072 65.6642L43.7785 62.2875C44.1119 55.7189 39.2346 50.4367 32.9179 50.4367H17.6367C11.296 50.4367 5.8488 55.7561 5.5131 62.3443ZM4.39229 62.2874C4.75661 55.1351 10.666 49.3145 17.6367 49.3145H32.9179C39.9141 49.3145 45.2633 55.1724 44.8993 62.3444L44.728 65.7211C44.3651 72.8736 38.4549 78.6941 31.4842 78.6941H16.2024C9.20684 78.6941 3.85775 72.8355 4.22162 65.6643C4.22162 65.6643 4.22162 65.6643 4.22162 65.6642L4.39229 62.2874ZM94.808 49.3397H123.825L123.623 53.292L116.221 56.6686L115.526 70.363L122.405 73.9164L122.161 78.7207H92.2841L92.5109 74.2579L100.246 70.1693L100.934 56.6358L94.6006 53.4365L94.808 49.3397ZM95.8749 50.462L95.7583 52.764L102.091 55.9635L101.334 70.8634L93.5993 74.9519L93.4649 77.5984H121.094L121.247 74.5816L114.368 71.0282L115.135 55.9306L122.537 52.5539L122.644 50.462H95.8749ZM24.6292 54.3048C23.043 54.3048 21.6511 55.646 21.5652 57.327L20.9125 70.1926C20.9125 70.1927 20.9125 70.1928 20.9125 70.1928C20.8288 71.8542 22.0533 73.1573 23.6152 73.1573H24.4419C26.029 73.1573 27.4207 71.816 27.5059 70.136L28.1587 57.2701C28.1587 57.2701 28.1587 57.27 28.1587 57.2699C28.2424 55.6084 27.0177 54.3048 25.456 54.3048H24.6292ZM20.4444 57.2698C20.5591 55.0249 22.4131 53.1826 24.6292 53.1826H25.456C27.6978 53.1826 29.3937 55.0624 29.2795 57.3266L28.6267 70.1928C28.5128 72.4374 26.6586 74.2795 24.4419 74.2795H23.6152C21.3735 74.2795 19.6775 72.4005 19.7916 70.1361L20.4444 57.2699L20.4444 57.2698ZM73.2017 56.9566C72.8593 56.5883 72.3005 56.34 71.6012 56.3585L71.5937 56.3587H67.6817L67.4833 60.1611H71.1104C72.3924 60.1617 72.9633 59.695 73.2352 59.3166C73.3811 59.1134 73.46 58.9086 73.5019 58.7546C73.5227 58.6782 73.5338 58.6165 73.5395 58.5771C73.5424 58.5574 73.5438 58.5436 73.5445 58.5366C73.5447 58.5348 73.5448 58.5335 73.5448 58.5327L73.5449 58.5314M74.661 58.6503C74.8684 57.7021 74.6105 56.8238 74.0236 56.1925C73.4366 55.5611 72.5561 55.2126 71.5792 55.2365H66.6165L66.301 61.2834H71.1099C71.11 61.2834 71.1101 61.2834 71.1102 61.2834C72.7167 61.284 73.6432 60.672 74.1466 59.9714C74.3882 59.635 74.5165 59.3002 74.5847 59.0494C74.619 58.9235 74.6388 58.8165 74.6502 58.7379C74.6552 58.7031 74.6587 58.6736 74.661 58.6503ZM73.0103 68.6291C73.4008 67.7405 72.7237 66.1433 70.878 66.2162L70.867 66.2166L67.1648 66.2178L66.9628 70.337H70.5835C71.7831 70.296 72.3539 69.8553 72.6362 69.4964C72.7856 69.3065 72.87 69.1192 72.9166 68.9817C72.9398 68.9133 72.9531 68.8587 72.9602 68.8246C72.9637 68.8076 72.9657 68.796 72.9665 68.7905C72.9667 68.7893 72.9667 68.7896 72.9668 68.7891C72.9669 68.7882 72.9671 68.7868 72.967 68.787L72.9756 68.708L73.0103 68.6291ZM74.0674 69.0101C74.7424 67.3279 73.4299 64.9993 70.8451 65.0944L66.0962 65.0958L65.7842 71.4593H70.602L70.6111 71.459C72.1221 71.4099 73.0148 70.8302 73.5182 70.1904C73.762 69.8805 73.901 69.5736 73.9795 69.3418C74.0189 69.2255 74.0436 69.1266 74.0588 69.0535C74.0621 69.0379 74.0649 69.0234 74.0674 69.0101Z" fill="black"/>
<path d="M116.953 67.7631C116.953 67.046 117.235 66.3959 117.69 65.9277C118.144 65.4582 118.773 65.1674 119.467 65.1674C120.161 65.1674 120.789 65.4582 121.245 65.9277C121.72 66.4204 121.984 67.0788 121.981 67.7631C121.983 68.4469 121.719 69.1046 121.245 69.5972H121.244C121.014 69.837 120.738 70.0279 120.433 70.1586C120.127 70.2892 119.799 70.3569 119.467 70.3576C119.134 70.3567 118.806 70.2889 118.501 70.1582C118.195 70.0276 117.92 69.8368 117.69 69.5972V69.5959C117.215 69.104 116.951 68.4466 116.953 67.7631ZM119.469 68.0706H118.91V69.0547H118.445V66.449L119.741 66.4477C120.114 66.4583 120.385 66.6575 120.514 66.9092C120.572 67.0194 120.603 67.1389 120.604 67.2565V67.2578C120.605 67.38 120.577 67.5015 120.514 67.6144C120.425 67.7777 120.268 67.9179 120.036 67.9982L120.697 69.1005H120.087L119.469 68.0706ZM118.91 67.5892C119.188 67.5892 119.425 67.5712 119.736 67.5712H119.777L119.779 67.5739C119.955 67.54 120.062 67.4676 120.108 67.3806C120.128 67.3446 120.139 67.3038 120.138 67.2624C120.137 67.2183 120.126 67.1749 120.105 67.1356C120.047 67.0227 119.916 66.9344 119.73 66.9291H118.91V67.5892ZM118.034 66.283C117.651 66.6805 117.438 67.2114 117.441 67.7631C117.441 68.3402 117.668 68.8628 118.034 69.242C118.401 69.6192 118.906 69.8542 119.467 69.8542C120.027 69.8542 120.532 69.6192 120.9 69.242C121.267 68.8635 121.493 68.3409 121.493 67.7631C121.493 67.1847 121.267 66.6621 120.9 66.283C120.532 65.9038 120.027 65.6707 119.467 65.6707C119.199 65.6713 118.934 65.7258 118.688 65.831C118.442 65.9362 118.219 66.0899 118.034 66.283Z" fill="black"/>
</svg>
