<svg width="32" height="32" viewBox="0 0 32 32" fill="none" xmlns="http://www.w3.org/2000/svg">
<g opacity="0.5">
<circle cx="16" cy="16" r="16" fill="#717171"/>
<path d="M23.8448 20.0924C23.8448 20.026 23.7784 20.026 23.7784 19.9596C23.5127 19.4282 22.915 18.764 22.1179 18.0334C21.7194 17.7013 21.5202 17.4357 21.3873 17.3028C21.1881 17.0372 21.1881 16.8379 21.2545 16.5722C21.3209 16.373 21.5866 16.0409 22.0515 15.4431C22.3172 15.111 22.45 14.9118 22.6493 14.7125C23.6455 13.3842 24.1105 12.5207 23.9776 12.1222L23.9112 12.0558C23.8448 11.9894 23.7784 11.923 23.6455 11.923C23.5127 11.8565 23.3135 11.8565 23.1142 11.923H20.5903C20.5239 11.923 20.5239 11.923 20.3911 11.923C20.3246 11.923 20.2582 11.923 20.2582 11.923H20.1918H20.1254L20.059 11.9894C19.9925 12.0558 19.9925 12.0558 19.9925 12.1222C19.7269 12.8528 19.3948 13.4506 19.0627 14.1147C18.8634 14.4468 18.6642 14.7789 18.4649 15.0446C18.2657 15.3103 18.1328 15.5095 18 15.6424C17.8672 15.7752 17.7343 15.8416 17.6679 15.9745C17.6015 16.0409 17.4686 16.1073 17.4686 16.0409C17.4022 16.0409 17.3358 16.0409 17.3358 15.9745C17.2694 15.908 17.203 15.8416 17.1366 15.7752C17.0701 15.7088 17.0701 15.576 17.0037 15.4431C17.0037 15.3103 17.0037 15.1774 17.0037 15.111C17.0037 15.0446 17.0037 14.8454 17.0037 14.7125C17.0037 14.5133 17.0037 14.3804 17.0037 14.314C17.0037 14.1147 17.0037 13.8491 17.0037 13.5834C17.0037 13.3177 17.0037 13.1185 17.0037 12.9856C17.0037 12.8528 17.0037 12.6535 17.0037 12.5207C17.0037 12.3215 17.0037 12.1886 17.0037 12.1222C17.0037 12.0558 16.9373 11.9229 16.9373 11.8565C16.8709 11.7901 16.8045 11.7237 16.738 11.6573C16.6716 11.5909 16.5388 11.5909 16.4724 11.5244C16.1403 11.458 15.7418 11.3916 15.2769 11.3916C14.2142 11.3916 13.4836 11.458 13.2179 11.5909C13.085 11.6573 12.9522 11.7237 12.8858 11.8565C12.753 11.9894 12.7529 12.0558 12.8194 12.0558C13.1515 12.1222 13.4171 12.255 13.55 12.4543L13.6164 12.5871C13.6828 12.6536 13.6828 12.7864 13.7492 12.9856C13.8156 13.1849 13.8156 13.3841 13.8156 13.6498C13.8156 14.0483 13.8156 14.4468 13.8156 14.7125C13.8156 15.0446 13.7492 15.2439 13.7492 15.4431C13.7492 15.6424 13.6828 15.7752 13.6164 15.8416C13.55 15.9745 13.55 16.0409 13.4835 16.0409C13.4835 16.0409 13.4835 16.1073 13.4171 16.1073C13.3507 16.1073 13.2843 16.1737 13.1515 16.1737C13.085 16.1737 12.9522 16.1073 12.8858 16.0409C12.753 15.9745 12.6201 15.8416 12.5537 15.7088C12.4209 15.576 12.288 15.3767 12.1552 15.111C12.0223 14.8453 11.8231 14.5797 11.6902 14.1812L11.5574 13.9155C11.491 13.7827 11.3582 13.517 11.2253 13.1849C11.0925 12.8528 10.9597 12.5871 10.8268 12.255C10.7604 12.1222 10.694 12.0558 10.6276 11.9894H10.5611C10.5611 11.9894 10.4947 11.923 10.4283 11.923C10.3619 11.923 10.2955 11.8565 10.2291 11.8565H7.83799C7.57232 11.8565 7.43948 11.9229 7.37306 11.9894L7.30664 12.0558C7.30664 12.0558 7.30664 12.1222 7.30664 12.1886C7.30664 12.255 7.30664 12.3215 7.37306 12.4543C7.70515 13.2513 8.10366 14.0483 8.50217 14.8454C8.90068 15.576 9.2992 16.2401 9.56487 16.7051C9.89696 17.17 10.1626 17.6349 10.4947 18.0334C10.8268 18.4319 11.0261 18.6976 11.0925 18.8305C11.2253 18.9633 11.2917 19.0297 11.3582 19.0961L11.5574 19.2954C11.6903 19.4282 11.8895 19.6275 12.1552 19.8267C12.4209 20.026 12.7529 20.2252 13.085 20.4245C13.4171 20.6237 13.8156 20.7566 14.2142 20.8894C14.6791 21.0223 15.0776 21.0887 15.4761 21.0223H16.4724C16.6716 21.0223 16.8045 20.9558 16.9373 20.823L17.0037 20.7566C17.0037 20.6902 17.0701 20.6902 17.0701 20.6237C17.0701 20.5573 17.0701 20.4909 17.0701 20.3581C17.0701 20.0924 17.0701 19.8931 17.1366 19.6939C17.203 19.4946 17.203 19.3618 17.2694 19.229C17.3358 19.0961 17.4022 19.0297 17.4686 18.9633C17.5351 18.8969 17.6015 18.8305 17.6015 18.8305H17.6679C17.8007 18.764 18 18.8305 18.1328 18.9633C18.3321 19.0961 18.5313 19.2954 18.6642 19.4946C18.797 19.6939 18.9963 19.8931 19.262 20.1588C19.5276 20.4245 19.7269 20.6238 19.8597 20.6902L20.059 20.823C20.1918 20.8894 20.3246 20.9558 20.5239 21.0223C20.7232 21.0887 20.856 21.0887 20.9888 21.0887L23.2471 21.0223C23.4463 21.0223 23.6456 20.9558 23.7784 20.8894C23.9112 20.823 23.9776 20.7566 23.9776 20.6237C23.9776 20.5573 23.9776 20.4245 23.9776 20.3581C23.8448 20.2252 23.8448 20.1588 23.8448 20.0924Z" fill="white"/>
</g>
</svg>
